<svg width="25" height="20" viewBox="0 0 25 20" fill="none" xmlns="http://www.w3.org/2000/svg">
<g clip-path="url(#clip0_22_3639)">
<path d="M15.3438 0.046876C14.6797 -0.14453 13.9883 0.242189 13.7969 0.906251L8.79688 18.4063C8.60547 19.0703 8.99219 19.7617 9.65625 19.9531C10.3203 20.1445 11.0117 19.7578 11.2031 19.0938L16.2031 1.59375C16.3945 0.929688 16.0078 0.238282 15.3438 0.046876ZM18.4922 4.73828C18.0039 5.22656 18.0039 6.01953 18.4922 6.50781L21.9805 10L18.4883 13.4922C18 13.9805 18 14.7734 18.4883 15.2617C18.9766 15.75 19.7695 15.75 20.2578 15.2617L24.6328 10.8867C25.1211 10.3984 25.1211 9.60547 24.6328 9.11719L20.2578 4.74219C19.7695 4.25391 18.9766 4.25391 18.4883 4.74219L18.4922 4.73828ZM6.51172 4.73828C6.02344 4.25 5.23047 4.25 4.74219 4.73828L0.367188 9.11328C-0.121094 9.60156 -0.121094 10.3945 0.367188 10.8828L4.74219 15.2578C5.23047 15.7461 6.02344 15.7461 6.51172 15.2578C7 14.7695 7 13.9766 6.51172 13.4883L3.01953 10L6.51172 6.50781C7 6.01953 7 5.22656 6.51172 4.73828Z" fill="#0A192F"/>
</g>
<defs>
<clipPath id="clip0_22_3639">
<path d="M0 0H25V20H0V0Z" fill="white"/>
</clipPath>
</defs>
</svg>
